<svg width="104" height="42" viewBox="0 0 104 42" fill="none" xmlns="http://www.w3.org/2000/svg">
<path d="M9.7945 1.76712C12.5571 1.76712 14.9178 2.31963 16.8767 3.42465C18.8356 4.52969 20.3048 6.04905 21.2842 7.98286C22.2887 9.91667 22.7911 12.1016 22.7911 14.5376C22.7911 17.0239 22.2887 19.2465 21.2842 21.2054C20.3048 23.1392 18.8356 24.6586 16.8767 25.7636C14.9429 26.8435 12.5822 27.3835 9.7945 27.3835H0V1.76712H9.7945ZM9.7945 23.6917C12.2808 23.6917 14.2146 22.8756 15.5959 21.2431C16.9771 19.5856 17.6678 17.363 17.6678 14.5753C17.6678 11.8379 16.9771 9.64039 15.5959 7.98286C14.2146 6.30024 12.2808 5.45889 9.7945 5.45889H5.12328V23.6917H9.7945ZM39.7755 27.9109C36.9626 27.9109 34.5643 27.3207 32.5803 26.1404C30.5962 24.9349 29.0894 23.3276 28.0597 21.3185C27.0551 19.2842 26.5529 17.049 26.5529 14.613C26.5529 12.1518 27.0551 9.91667 28.0597 7.90752C29.0643 5.89836 30.5585 4.30367 32.5426 3.12328C34.5517 1.9178 36.9626 1.31506 39.7755 1.31506C42.5631 1.31506 44.9489 1.9178 46.933 3.12328C48.9421 4.30367 50.4489 5.89836 51.4535 7.90752C52.4832 9.91667 52.9981 12.1393 52.9981 14.5753C52.9981 17.0365 52.4832 19.2842 51.4535 21.3185C50.4489 23.3276 48.9547 24.9349 46.9707 26.1404C44.9866 27.3207 42.5882 27.9109 39.7755 27.9109ZM39.8131 24.1438C41.4958 24.1438 42.9399 23.7294 44.1453 22.9006C45.3759 22.0719 46.3051 20.9417 46.933 19.5102C47.5859 18.0536 47.9124 16.4086 47.9124 14.5753C47.9124 12.7671 47.5859 11.1472 46.933 9.71573C46.3051 8.28423 45.3759 7.15409 44.1453 6.32533C42.9399 5.49656 41.4958 5.08218 39.8131 5.08218C38.1054 5.08218 36.6362 5.49656 35.4056 6.32533C34.2001 7.15409 33.2835 8.28423 32.6556 9.71573C32.0277 11.1472 31.7138 12.7671 31.7138 14.5753C31.7138 16.4086 32.0277 18.0536 32.6556 19.5102C33.2835 20.9417 34.2001 22.0719 35.4056 22.9006C36.6362 23.7294 38.1054 24.1438 39.8131 24.1438ZM76.6457 5.45889H68.8476V27.3835H63.7243V5.45889H55.9264V1.76712H76.6457V5.45889ZM88.2296 27.9109C84.6637 27.9109 81.7125 27.2077 79.3769 25.8013L80.6201 22.2226C81.876 22.8756 83.1064 23.3653 84.3118 23.6917C85.5173 23.9931 86.7981 24.1438 88.1543 24.1438C89.6868 24.1438 90.9676 23.8298 91.9967 23.202C93.0267 22.5742 93.5413 21.6701 93.5413 20.4897C93.5413 19.7614 93.2904 19.1461 92.7878 18.6438C92.3109 18.1164 91.7082 17.6894 90.9796 17.363C90.2518 17.0114 89.2468 16.6096 87.9659 16.1575C86.3084 15.5548 84.965 15.0023 83.9351 14.5C82.9308 13.9726 82.0644 13.2568 81.3358 12.3527C80.608 11.4235 80.2433 10.2557 80.2433 8.8493C80.2433 6.46343 81.1226 4.61754 82.8803 3.31164C84.6637 1.98059 87.0121 1.31506 89.9248 1.31506C92.8383 1.31506 95.4 1.99314 97.6097 3.34931L96.3666 6.8904C94.2826 5.68492 92.1851 5.08218 90.0755 5.08218C88.6696 5.08218 87.5139 5.38355 86.6098 5.98629C85.7057 6.58903 85.2536 7.44288 85.2536 8.54793C85.2536 9.20092 85.4796 9.76599 85.9317 10.2431C86.4094 10.7203 86.9865 11.1221 87.6646 11.4486C88.3683 11.75 89.3477 12.1393 90.6029 12.6164C92.3109 13.2442 93.6919 13.8345 94.7467 14.387C95.8015 14.9144 96.7056 15.6552 97.4591 16.6096C98.2125 17.5388 98.5892 18.7317 98.5892 20.1883C98.5892 22.5993 97.673 24.4954 95.8392 25.8767C94.0061 27.2328 91.4693 27.9109 88.2296 27.9109Z" fill="black"/>
<path d="M52.4965 39.5512C51.9289 39.5512 51.4366 39.4407 51.0198 39.2197L51.2458 38.5266C51.6426 38.7225 52.0544 38.8204 52.4814 38.8204C52.7276 38.8204 52.9235 38.7777 53.0691 38.6923C53.2198 38.6019 53.2951 38.4688 53.2951 38.293C53.2951 38.1474 53.2248 38.0318 53.0842 37.9465C52.9485 37.8611 52.7325 37.7656 52.4362 37.6602C52.1599 37.5597 51.9339 37.4668 51.7581 37.3814C51.5873 37.296 51.4392 37.178 51.3136 37.0273C51.1931 36.8715 51.1328 36.6807 51.1328 36.4547C51.1328 36.0378 51.2835 35.7214 51.5848 35.5054C51.8862 35.2844 52.2931 35.1739 52.8054 35.1739C53.0414 35.1739 53.2725 35.2015 53.4985 35.2567C53.7296 35.307 53.933 35.3823 54.1088 35.4828L53.8828 36.1759C53.5312 35.9951 53.1796 35.9047 52.828 35.9047C52.607 35.9047 52.4312 35.9423 52.3006 36.0177C52.175 36.088 52.1122 36.1985 52.1122 36.3492C52.1122 36.4948 52.1776 36.6078 52.3081 36.6882C52.4387 36.7636 52.6522 36.854 52.9485 36.9595C53.2298 37.0549 53.4558 37.1478 53.6266 37.2382C53.8024 37.3236 53.9531 37.4492 54.0787 37.615C54.2092 37.7757 54.2746 37.9816 54.2746 38.2328C54.2746 38.6447 54.1188 38.9686 53.8074 39.2047C53.501 39.4357 53.064 39.5512 52.4965 39.5512ZM57.0212 38.8204C57.2623 38.8204 57.4833 38.7727 57.6842 38.6773C57.8902 38.5818 58.1011 38.4437 58.3171 38.2629L58.6184 38.8882C58.3773 39.1092 58.1287 39.275 57.8725 39.3855C57.6214 39.496 57.3351 39.5512 57.0136 39.5512C56.5516 39.5512 56.1648 39.4558 55.8534 39.2649C55.542 39.0691 55.3084 38.8078 55.1527 38.4814C55.002 38.1499 54.9267 37.7782 54.9267 37.3663C54.9267 36.9444 55.0046 36.5702 55.1602 36.2437C55.3159 35.9122 55.5495 35.651 55.8609 35.4602C56.1724 35.2693 56.5566 35.1739 57.0136 35.1739C57.531 35.1739 57.9354 35.3195 58.2266 35.6108C58.523 35.8971 58.6737 36.3015 58.6787 36.8239C58.6787 36.9896 58.6511 37.1755 58.5958 37.3814H55.9061C55.9111 37.8435 56.004 38.2001 56.1849 38.4512C56.3657 38.6974 56.6445 38.8204 57.0212 38.8204ZM56.9684 35.8519C56.7022 35.8519 56.4862 35.9298 56.3205 36.0855C56.1547 36.2362 56.0392 36.4447 55.9739 36.7108H57.7068V36.6204C57.7068 36.3743 57.6365 36.1859 57.4958 36.0554C57.3602 35.9197 57.1844 35.8519 56.9684 35.8519ZM63.3419 39.4081C63.121 39.4734 62.8924 39.5085 62.6563 39.5136C62.4353 39.5136 62.2495 39.4759 62.0988 39.4006C61.9531 39.3252 61.8502 39.1971 61.7899 39.0163C61.5689 39.1821 61.3529 39.3077 61.1419 39.393C60.931 39.4784 60.7075 39.5211 60.4714 39.5211C60.1399 39.5211 59.8687 39.4257 59.6577 39.2348C59.4467 39.0389 59.3413 38.7978 59.3413 38.5115C59.3413 38.2252 59.4166 37.9917 59.5673 37.8108C59.718 37.63 59.9264 37.4844 60.1926 37.3739C60.4639 37.2633 60.8456 37.1378 61.3378 36.9971L61.7296 36.8841V36.7184C61.7296 36.4622 61.6744 36.2663 61.5639 36.1307C61.4584 35.99 61.2952 35.9197 61.0741 35.9197C60.8431 35.9197 60.6145 35.9674 60.3885 36.0629C60.1675 36.1584 59.9139 36.3266 59.6276 36.5677L59.3639 35.9122C59.9918 35.42 60.6548 35.1739 61.3529 35.1739C61.81 35.1739 62.1515 35.2969 62.3776 35.543C62.6086 35.7841 62.7241 36.1935 62.7241 36.7711V38.4739C62.7241 38.5844 62.7442 38.6647 62.7844 38.7149C62.8246 38.7602 62.8924 38.7828 62.9878 38.7828C63.0833 38.7828 63.1837 38.7626 63.2892 38.7225L63.3419 39.4081ZM60.3358 38.3985C60.3358 38.6597 60.4815 38.7903 60.7728 38.7903C60.9185 38.7903 61.0666 38.7577 61.2173 38.6923C61.368 38.627 61.5388 38.5291 61.7296 38.3985V37.4643L61.4584 37.5547C61.0315 37.6953 60.7377 37.8259 60.5769 37.9465C60.4162 38.067 60.3358 38.2177 60.3358 38.3985ZM66.4833 36.1232C66.2371 36.1232 66.0036 36.1508 65.7826 36.206C65.5666 36.2563 65.3305 36.3567 65.0744 36.5074V39.4382H64.0798V35.2869H64.8257L64.9915 35.7992C65.2426 35.5732 65.4887 35.415 65.7298 35.3245C65.9709 35.2291 66.222 35.1814 66.4833 35.1814V36.1232ZM69.1392 39.5512C68.6772 39.5512 68.2879 39.4558 67.9714 39.2649C67.66 39.0691 67.4265 38.8078 67.2707 38.4814C67.1201 38.1499 67.0447 37.7782 67.0447 37.3663C67.0447 36.9645 67.1226 36.5978 67.2783 36.2663C67.434 35.9348 67.6751 35.6711 68.0016 35.4752C68.3331 35.2743 68.745 35.1739 69.2372 35.1739C69.4582 35.1739 69.6817 35.2065 69.9077 35.2718C70.1337 35.3371 70.3171 35.4225 70.4577 35.528L70.2166 36.2211C69.9103 36.0102 69.5837 35.9047 69.2372 35.9047C68.8605 35.9047 68.5692 36.0352 68.3632 36.2965C68.1573 36.5526 68.0543 36.9067 68.0543 37.3588C68.0543 37.8159 68.1473 38.175 68.3331 38.4362C68.524 38.6923 68.7927 38.8204 69.1392 38.8204C69.3603 38.8204 69.5587 38.7803 69.7344 38.6999C69.9153 38.6195 70.1011 38.504 70.292 38.3533L70.6009 38.9786C70.4251 39.1444 70.2116 39.2825 69.9605 39.393C69.7093 39.4985 69.4356 39.5512 69.1392 39.5512ZM73.6986 35.1739C74.2003 35.1739 74.5469 35.307 74.7383 35.5732C74.9289 35.8344 75.0246 36.2136 75.0246 36.7108V39.4382H74.0301V36.8239C74.0301 36.4923 73.9819 36.2588 73.8869 36.1232C73.7965 35.9876 73.633 35.9197 73.3972 35.9197C73.0808 35.9197 72.7515 36.0478 72.4099 36.304V39.4382H71.4154V33.4108H72.4099V35.5958C72.8517 35.3145 73.2812 35.1739 73.6986 35.1739ZM79.3297 39.5512C78.7623 39.5512 78.2703 39.4407 77.8529 39.2197L78.079 38.5266C78.476 38.7225 78.8882 38.8204 79.3146 38.8204C79.561 38.8204 79.7568 38.7777 79.9023 38.6923C80.0529 38.6019 80.1283 38.4688 80.1283 38.293C80.1283 38.1474 80.0582 38.0318 79.9173 37.9465C79.7817 37.8611 79.5662 37.7656 79.2694 37.6602C78.9936 37.5597 78.7676 37.4668 78.5913 37.3814C78.421 37.296 78.2726 37.178 78.1468 37.0273C78.0262 36.8715 77.966 36.6807 77.966 36.4547C77.966 36.0378 78.1166 35.7214 78.418 35.5054C78.7194 35.2844 79.1262 35.1739 79.6386 35.1739C79.8751 35.1739 80.1057 35.2015 80.3317 35.2567C80.563 35.307 80.7664 35.3823 80.942 35.4828L80.716 36.1759C80.3649 35.9951 80.013 35.9047 79.6612 35.9047C79.4404 35.9047 79.2649 35.9423 79.1338 36.0177C79.0087 36.088 78.9454 36.1985 78.9454 36.3492C78.9454 36.4948 79.011 36.6078 79.1413 36.6882C79.2724 36.7636 79.4856 36.854 79.7817 36.9595C80.0635 37.0549 80.2895 37.1478 80.4598 37.2382C80.6361 37.3236 80.7868 37.4492 80.9118 37.615C81.0429 37.7757 81.1077 37.9816 81.1077 38.2328C81.1077 38.6447 80.9525 38.9686 80.6406 39.2047C80.3347 39.4357 79.8977 39.5512 79.3297 39.5512ZM83.8547 38.8204C84.0958 38.8204 84.3166 38.7727 84.5177 38.6773C84.7234 38.5818 84.9344 38.4437 85.1506 38.2629L85.452 38.8882C85.2109 39.1092 84.9622 39.275 84.7061 39.3855C84.4544 39.496 84.1681 39.5512 83.8472 39.5512C83.3846 39.5512 82.9981 39.4558 82.6869 39.2649C82.375 39.0691 82.1414 38.8078 81.9862 38.4814C81.8355 38.1499 81.7602 37.7782 81.7602 37.3663C81.7602 36.9444 81.8378 36.5702 81.9938 36.2437C82.149 35.9122 82.3825 35.651 82.6944 35.4602C83.0056 35.2693 83.3899 35.1739 83.8472 35.1739C84.364 35.1739 84.7686 35.3195 85.0602 35.6108C85.3563 35.8971 85.507 36.3015 85.5122 36.8239C85.5122 36.9896 85.4844 37.1755 85.4294 37.3814H82.7396C82.7442 37.8435 82.8376 38.2001 83.0184 38.4512C83.1992 38.6974 83.478 38.8204 83.8547 38.8204ZM83.802 35.8519C83.5353 35.8519 83.3198 35.9298 83.154 36.0855C82.9883 36.2362 82.8722 36.4447 82.8075 36.7108H84.5403V36.6204C84.5403 36.3743 84.4695 36.1859 84.3294 36.0554C84.1938 35.9197 84.0175 35.8519 83.802 35.8519ZM88.9019 36.1232C88.6555 36.1232 88.422 36.1508 88.2012 36.206C87.985 36.2563 87.7492 36.3567 87.493 36.5074V39.4382H86.4985V35.2869H87.2444L87.4101 35.7992C87.661 35.5732 87.9074 35.415 88.1485 35.3245C88.3896 35.2291 88.6405 35.1814 88.9019 35.1814V36.1232ZM93.3885 35.2869L91.7837 39.4834H90.8269L89.2221 35.2869H90.2392L91.3166 38.4437L92.394 35.2869H93.3885ZM94.6407 34.3752C94.4802 34.3752 94.3416 34.3174 94.2263 34.2019C94.1111 34.0864 94.0531 33.9483 94.0531 33.7876C94.0531 33.6269 94.1111 33.4887 94.2263 33.3732C94.3416 33.2577 94.4802 33.1999 94.6407 33.1999C94.8065 33.1999 94.9474 33.2577 95.0626 33.3732C95.1779 33.4887 95.2359 33.6269 95.2359 33.7876C95.2359 33.9483 95.1779 34.0864 95.0626 34.2019C94.9474 34.3174 94.8065 34.3752 94.6407 34.3752ZM94.151 35.2869H95.1455V39.4382H94.151V35.2869ZM98.2459 39.5512C97.784 39.5512 97.3945 39.4558 97.0781 39.2649C96.7669 39.0691 96.5333 38.8078 96.3774 38.4814C96.2267 38.1499 96.1513 37.7782 96.1513 37.3663C96.1513 36.9645 96.2297 36.5978 96.3849 36.2663C96.5409 35.9348 96.782 35.6711 97.1082 35.4752C97.4397 35.2743 97.8518 35.1739 98.3438 35.1739C98.5653 35.1739 98.7883 35.2065 99.0143 35.2718C99.2404 35.3371 99.4242 35.4225 99.5643 35.528L99.3233 36.2211C99.0174 36.0102 98.6904 35.9047 98.3438 35.9047C97.9671 35.9047 97.6763 36.0352 97.4698 36.2965C97.2641 36.5526 97.1609 36.9067 97.1609 37.3588C97.1609 37.8159 97.2544 38.175 97.4397 38.4362C97.6311 38.6923 97.8993 38.8204 98.2459 38.8204C98.4674 38.8204 98.6655 38.7803 98.8411 38.6999C99.0219 38.6195 99.208 38.504 99.3986 38.3533L99.7075 38.9786C99.5319 39.1444 99.3187 39.2825 99.0671 39.393C98.8162 39.4985 98.5427 39.5512 98.2459 39.5512ZM102.292 38.8204C102.534 38.8204 102.755 38.7727 102.956 38.6773C103.162 38.5818 103.373 38.4437 103.588 38.2629L103.89 38.8882C103.649 39.1092 103.4 39.275 103.144 39.3855C102.893 39.496 102.607 39.5512 102.285 39.5512C101.823 39.5512 101.437 39.4558 101.125 39.2649C100.814 39.0691 100.58 38.8078 100.424 38.4814C100.273 38.1499 100.198 37.7782 100.198 37.3663C100.198 36.9444 100.276 36.5702 100.432 36.2437C100.587 35.9122 100.821 35.651 101.132 35.4602C101.444 35.2693 101.828 35.1739 102.285 35.1739C102.803 35.1739 103.207 35.3195 103.498 35.6108C103.795 35.8971 103.945 36.3015 103.95 36.8239C103.95 36.9896 103.923 37.1755 103.867 37.3814H101.177C101.183 37.8435 101.275 38.2001 101.456 38.4512C101.637 38.6974 101.916 38.8204 102.292 38.8204ZM102.24 35.8519C101.974 35.8519 101.758 35.9298 101.592 36.0855C101.426 36.2362 101.311 36.4447 101.245 36.7108H102.978V36.6204C102.978 36.3743 102.908 36.1859 102.767 36.0554C102.632 35.9197 102.456 35.8519 102.24 35.8519Z" fill="black"/>
<path fill-rule="evenodd" clip-rule="evenodd" d="M40 0C47.732 0 54 5.57464 54 12.4518C54 23.6811 40 42 40 42C40 42 26 23.7809 26 12.4518C26 5.57464 32.268 0 40 0Z" fill="#198754"/>
<path d="M40 20C43.866 20 47 16.866 47 13C47 9.13401 43.866 6 40 6C36.134 6 33 9.13401 33 13C33 16.866 36.134 20 40 20Z" fill="white"/>
</svg>
